<?xml version="1.0" encoding="UTF-8" standalone="no"?>
<!-- Created with Inkscape (http://www.inkscape.org/) -->

<svg
   version="1.1"
   id="svg2"
   xml:space="preserve"
   width="1113.6267"
   height="272.53333"
   viewBox="0 0 1113.6267 272.53333"
   sodipodi:docname="cemit.svg"
   xmlns:inkscape="http://www.inkscape.org/namespaces/inkscape"
   xmlns:sodipodi="http://sodipodi.sourceforge.net/DTD/sodipodi-0.dtd"
   xmlns="http://www.w3.org/2000/svg"
   xmlns:svg="http://www.w3.org/2000/svg"><defs
     id="defs6" /><sodipodi:namedview
     id="namedview4"
     pagecolor="#ffffff"
     bordercolor="#666666"
     borderopacity="1.0"
     inkscape:pageshadow="2"
     inkscape:pageopacity="0.0"
     inkscape:pagecheckerboard="0" /><g
     id="g8"
     inkscape:groupmode="layer"
     inkscape:label="ink_ext_XXXXXX"
     transform="matrix(1.3333333,0,0,-1.3333333,0,272.53333)"><g
       id="g10"
       transform="scale(0.1)"><path
         d="m 4647.47,1077.8 -963.54,924.06 V 1365.1 l 963.54,-963.678 963.4,963.678 v 636.76 l -963.4,-924.06"
         style="fill:#ee233b;fill-opacity:1;fill-rule:nonzero;stroke:none"
         id="path12" /><path
         d="m 3683.98,42.0195 h 726.71 L 3683.98,769.129 Z"
         style="fill:#ee233b;fill-opacity:1;fill-rule:nonzero;stroke:none"
         id="path14" /><path
         d="m 4884.26,42.0195 h 726.57 V 769.129 Z"
         style="fill:#ee233b;fill-opacity:1;fill-rule:nonzero;stroke:none"
         id="path16" /><path
         d="m 1061.19,2043.98 c 198.8,0 397.6,-42 568.4,-123.21 v -490 c -120.4,100.8 -299.6,159.61 -478.8,159.61 C 840,1590.38 532,1419.59 532,993.98 c 0,-380.8 308,-537.601 613.19,-537.601 201.6,0 386.4,61.601 498.4,170.801 v -504 C 1472.79,41.9883 1279.59,-0.0117188 1072.39,-0.0117188 534.793,-0.0117188 -0.00390625,293.98 -0.00390625,993.98 c 0,739.2 532.00390625,1050 1061.19390625,1050"
         style="fill:#231f20;fill-opacity:1;fill-rule:nonzero;stroke:none"
         id="path18" /><path
         d="m 3370.73,1553.98 h -893.2 v -299.59 h 809.2 V 809.172 h -809.2 V 489.988 h 910 V 41.9883 h -1428 V 2001.98 h 1411.2 v -448"
         style="fill:#231f20;fill-opacity:1;fill-rule:nonzero;stroke:none"
         id="path20" /><path
         d="M 6481.17,41.9883 H 5963.18 V 2001.98 h 517.99 V 41.9883"
         style="fill:#231f20;fill-opacity:1;fill-rule:nonzero;stroke:none"
         id="path22" /><path
         d="m 8352.23,1539.97 h -551.6 V 41.9883 H 7282.64 V 1539.97 h -554.39 v 462.01 h 1623.98 v -462.01"
         style="fill:#231f20;fill-opacity:1;fill-rule:nonzero;stroke:none"
         id="path24" /></g></g></svg>